<mxfile host="app.diagrams.net" modified="2023-04-11T15:07:44.567Z" agent="Mozilla/5.0 (X11; Linux x86_64; rv:109.0) Gecko/20100101 Firefox/111.0" etag="SW2_ysP1BqM9CXfXx4Ip" version="21.1.5" type="device">
  <diagram name="Page-1" id="N4ThWHDD3PzargQeVq40">
    <mxGraphModel dx="1444" dy="893" grid="1" gridSize="10" guides="1" tooltips="1" connect="1" arrows="1" fold="1" page="1" pageScale="1" pageWidth="827" pageHeight="1169" math="0" shadow="0">
      <root>
        <mxCell id="0" />
        <mxCell id="1" parent="0" />
        <mxCell id="VB8kegDQqjzzXHRwAGh4-1" value="ConnectedClientsService" style="swimlane;fontStyle=1;align=center;verticalAlign=top;childLayout=stackLayout;horizontal=1;startSize=26;horizontalStack=0;resizeParent=1;resizeParentMax=0;resizeLast=0;collapsible=1;marginBottom=0;whiteSpace=wrap;html=1;" vertex="1" parent="1">
          <mxGeometry x="234" y="40" width="360" height="150" as="geometry">
            <mxRectangle x="150" y="150" width="190" height="30" as="alternateBounds" />
          </mxGeometry>
        </mxCell>
        <mxCell id="VB8kegDQqjzzXHRwAGh4-2" value="&lt;font face=&quot;Courier New&quot;&gt;+ clients: Map&amp;lt;number, socket&amp;gt;&lt;/font&gt;" style="text;strokeColor=none;fillColor=none;align=left;verticalAlign=top;spacingLeft=4;spacingRight=4;overflow=hidden;rotatable=0;points=[[0,0.5],[1,0.5]];portConstraint=eastwest;whiteSpace=wrap;html=1;" vertex="1" parent="VB8kegDQqjzzXHRwAGh4-1">
          <mxGeometry y="26" width="360" height="26" as="geometry" />
        </mxCell>
        <mxCell id="VB8kegDQqjzzXHRwAGh4-3" value="" style="line;strokeWidth=1;fillColor=none;align=left;verticalAlign=middle;spacingTop=-1;spacingLeft=3;spacingRight=3;rotatable=0;labelPosition=right;points=[];portConstraint=eastwest;strokeColor=inherit;" vertex="1" parent="VB8kegDQqjzzXHRwAGh4-1">
          <mxGeometry y="52" width="360" height="8" as="geometry" />
        </mxCell>
        <mxCell id="VB8kegDQqjzzXHRwAGh4-4" value="&lt;div&gt;&lt;font face=&quot;Courier New&quot;&gt;+ add (number, socket)&lt;/font&gt;&lt;/div&gt;&lt;div&gt;&lt;font face=&quot;Courier New&quot;&gt;+ get (nunber)&amp;nbsp;&amp;nbsp;&amp;nbsp;&amp;nbsp;&amp;nbsp;&amp;nbsp;&amp;nbsp;&amp;nbsp;&amp;nbsp; :socket&lt;/font&gt;&lt;/div&gt;&lt;div&gt;&lt;font face=&quot;Courier New&quot;&gt;+ delete (number)&lt;/font&gt;&lt;/div&gt;&lt;div&gt;&lt;font face=&quot;Courier New&quot;&gt;+ has (number)&amp;nbsp;&amp;nbsp;&amp;nbsp;&amp;nbsp;&amp;nbsp;&amp;nbsp;&amp;nbsp;&amp;nbsp;&amp;nbsp; :boolean&lt;/font&gt;&lt;/div&gt;&lt;div&gt;&lt;font face=&quot;Courier New&quot;&gt;+ array ()&amp;nbsp;&amp;nbsp;&amp;nbsp;&amp;nbsp;&amp;nbsp;&amp;nbsp;&amp;nbsp;&amp;nbsp;&amp;nbsp;&amp;nbsp;&amp;nbsp;&amp;nbsp;&amp;nbsp; :Array&amp;lt;[number, socket]&amp;gt;&lt;br&gt;&lt;/font&gt;&lt;/div&gt;" style="text;strokeColor=none;fillColor=none;align=left;verticalAlign=top;spacingLeft=4;spacingRight=4;overflow=hidden;rotatable=0;points=[[0,0.5],[1,0.5]];portConstraint=eastwest;whiteSpace=wrap;html=1;" vertex="1" parent="VB8kegDQqjzzXHRwAGh4-1">
          <mxGeometry y="60" width="360" height="90" as="geometry" />
        </mxCell>
        <mxCell id="VB8kegDQqjzzXHRwAGh4-5" value="BaseGateway" style="swimlane;fontStyle=1;align=center;verticalAlign=top;childLayout=stackLayout;horizontal=1;startSize=26;horizontalStack=0;resizeParent=1;resizeParentMax=0;resizeLast=0;collapsible=1;marginBottom=0;whiteSpace=wrap;html=1;" vertex="1" parent="1">
          <mxGeometry x="309" y="250" width="210" height="66" as="geometry" />
        </mxCell>
        <mxCell id="VB8kegDQqjzzXHRwAGh4-8" value="&lt;div&gt;&lt;font face=&quot;Courier New&quot;&gt;+ handleConnection (socket)&lt;/font&gt;&lt;/div&gt;&lt;div&gt;&lt;font face=&quot;Courier New&quot;&gt;+ handleDisconnect (socket)&lt;br&gt;&lt;/font&gt;&lt;/div&gt;" style="text;strokeColor=none;fillColor=none;align=left;verticalAlign=top;spacingLeft=4;spacingRight=4;overflow=hidden;rotatable=0;points=[[0,0.5],[1,0.5]];portConstraint=eastwest;whiteSpace=wrap;html=1;" vertex="1" parent="VB8kegDQqjzzXHRwAGh4-5">
          <mxGeometry y="26" width="210" height="40" as="geometry" />
        </mxCell>
        <mxCell id="VB8kegDQqjzzXHRwAGh4-9" value="UsersGateway" style="swimlane;fontStyle=1;align=center;verticalAlign=top;childLayout=stackLayout;horizontal=1;startSize=26;horizontalStack=0;resizeParent=1;resizeParentMax=0;resizeLast=0;collapsible=1;marginBottom=0;whiteSpace=wrap;html=1;" vertex="1" parent="1">
          <mxGeometry x="40" y="440" width="230" height="180" as="geometry" />
        </mxCell>
        <mxCell id="VB8kegDQqjzzXHRwAGh4-12" value="&lt;font face=&quot;Courier New&quot;&gt;+ get&amp;nbsp;&amp;nbsp;&amp;nbsp;&amp;nbsp;&amp;nbsp;&amp;nbsp;&amp;nbsp;&amp;nbsp;&amp;nbsp;&amp;nbsp; :User&lt;br&gt;+ update&amp;nbsp;&amp;nbsp;&amp;nbsp;&amp;nbsp;&amp;nbsp;&amp;nbsp;&amp;nbsp; :User&lt;br&gt;+ inviteFriend&amp;nbsp; :UserFriend&lt;br&gt;+ acceptFriend&amp;nbsp; :UserFriend&lt;br&gt;+ removeFriend&amp;nbsp; :UserFriend&lt;br&gt;+ ban&amp;nbsp;&amp;nbsp;&amp;nbsp;&amp;nbsp;&amp;nbsp;&amp;nbsp;&amp;nbsp;&amp;nbsp;&amp;nbsp;&amp;nbsp; :BannedUser&lt;br&gt;+ mute&amp;nbsp;&amp;nbsp;&amp;nbsp;&amp;nbsp;&amp;nbsp;&amp;nbsp;&amp;nbsp;&amp;nbsp;&amp;nbsp; :MutedUser&lt;br&gt;+ sendMessage&amp;nbsp;&amp;nbsp; :UserMessage&lt;br&gt;+ getMessages&amp;nbsp;&amp;nbsp; :UserMessage[]&lt;/font&gt;" style="text;strokeColor=none;fillColor=none;align=left;verticalAlign=top;spacingLeft=4;spacingRight=4;overflow=hidden;rotatable=0;points=[[0,0.5],[1,0.5]];portConstraint=eastwest;whiteSpace=wrap;html=1;" vertex="1" parent="VB8kegDQqjzzXHRwAGh4-9">
          <mxGeometry y="26" width="230" height="154" as="geometry" />
        </mxCell>
        <mxCell id="VB8kegDQqjzzXHRwAGh4-13" value="GamesGateway" style="swimlane;fontStyle=1;align=center;verticalAlign=top;childLayout=stackLayout;horizontal=1;startSize=26;horizontalStack=0;resizeParent=1;resizeParentMax=0;resizeLast=0;collapsible=1;marginBottom=0;whiteSpace=wrap;html=1;fontFamily=Helvetica;" vertex="1" parent="1">
          <mxGeometry x="289" y="440" width="250" height="270" as="geometry" />
        </mxCell>
        <mxCell id="VB8kegDQqjzzXHRwAGh4-16" value="&lt;font face=&quot;Courier New&quot;&gt;+ create&amp;nbsp;&amp;nbsp;&amp;nbsp;&amp;nbsp;&amp;nbsp;&amp;nbsp;&amp;nbsp;&amp;nbsp;&amp;nbsp;&amp;nbsp; :LocalGame&lt;br&gt;+ info&amp;nbsp;&amp;nbsp;&amp;nbsp;&amp;nbsp;&amp;nbsp;&amp;nbsp;&amp;nbsp;&amp;nbsp;&amp;nbsp;&amp;nbsp;&amp;nbsp;&amp;nbsp; :LocalGame&lt;br&gt;+ available&amp;nbsp;&amp;nbsp;&amp;nbsp;&amp;nbsp;&amp;nbsp;&amp;nbsp;&amp;nbsp; :LocalGame[]&lt;br&gt;+ invite&amp;nbsp;&amp;nbsp;&amp;nbsp;&amp;nbsp;&amp;nbsp;&amp;nbsp;&amp;nbsp;&amp;nbsp;&amp;nbsp;&amp;nbsp; :object&lt;br&gt;+ join&amp;nbsp;&amp;nbsp;&amp;nbsp;&amp;nbsp;&amp;nbsp;&amp;nbsp;&amp;nbsp;&amp;nbsp;&amp;nbsp;&amp;nbsp;&amp;nbsp;&amp;nbsp; :LocalGame&lt;br&gt;+ quit&amp;nbsp;&amp;nbsp;&amp;nbsp;&amp;nbsp;&amp;nbsp;&amp;nbsp;&amp;nbsp;&amp;nbsp;&amp;nbsp;&amp;nbsp;&amp;nbsp;&amp;nbsp; :LocalGame&lt;br&gt;+ joinMatchmaking&amp;nbsp; :boolean&lt;br&gt;+ quitMatchmaking&amp;nbsp; :boolean&lt;br&gt;+ startWatching&amp;nbsp;&amp;nbsp;&amp;nbsp; :LocalGame&lt;br&gt;+ stopWatching&amp;nbsp;&amp;nbsp;&amp;nbsp;&amp;nbsp; :LocalGame&lt;br&gt;+ playerMove&amp;nbsp;&amp;nbsp;&amp;nbsp;&amp;nbsp;&amp;nbsp;&amp;nbsp; :object&lt;br&gt;&lt;br&gt;+ history&amp;nbsp;&amp;nbsp;&amp;nbsp;&amp;nbsp;&amp;nbsp;&amp;nbsp;&amp;nbsp;&amp;nbsp;&amp;nbsp; :Game[]&lt;br&gt;+ leaderboard&amp;nbsp;&amp;nbsp;&amp;nbsp;&amp;nbsp;&amp;nbsp; :Leaderboards&lt;br&gt;+ userStats&amp;nbsp;&amp;nbsp;&amp;nbsp;&amp;nbsp;&amp;nbsp;&amp;nbsp;&amp;nbsp; :StatsUser&lt;br&gt;&lt;br&gt;&lt;/font&gt;" style="text;strokeColor=none;fillColor=none;align=left;verticalAlign=top;spacingLeft=4;spacingRight=4;overflow=hidden;rotatable=0;points=[[0,0.5],[1,0.5]];portConstraint=eastwest;whiteSpace=wrap;html=1;" vertex="1" parent="VB8kegDQqjzzXHRwAGh4-13">
          <mxGeometry y="26" width="250" height="244" as="geometry" />
        </mxCell>
        <mxCell id="VB8kegDQqjzzXHRwAGh4-17" value="ChannelsGateway" style="swimlane;fontStyle=1;align=center;verticalAlign=top;childLayout=stackLayout;horizontal=1;startSize=26;horizontalStack=0;resizeParent=1;resizeParentMax=0;resizeLast=0;collapsible=1;marginBottom=0;whiteSpace=wrap;html=1;" vertex="1" parent="1">
          <mxGeometry x="560" y="440" width="260" height="256" as="geometry" />
        </mxCell>
        <mxCell id="VB8kegDQqjzzXHRwAGh4-20" value="&lt;font face=&quot;Courier New&quot;&gt;+ create&amp;nbsp;&amp;nbsp;&amp;nbsp;&amp;nbsp;&amp;nbsp;&amp;nbsp; :Channel&lt;br&gt;+ list&amp;nbsp;&amp;nbsp;&amp;nbsp;&amp;nbsp;&amp;nbsp;&amp;nbsp;&amp;nbsp;&amp;nbsp; :Channel[]&lt;br&gt;+ get&amp;nbsp;&amp;nbsp;&amp;nbsp;&amp;nbsp;&amp;nbsp;&amp;nbsp;&amp;nbsp;&amp;nbsp;&amp;nbsp; :Channel&lt;br&gt;+ update&amp;nbsp;&amp;nbsp;&amp;nbsp;&amp;nbsp;&amp;nbsp;&amp;nbsp; :Channel&lt;br&gt;+ join&amp;nbsp;&amp;nbsp;&amp;nbsp;&amp;nbsp;&amp;nbsp;&amp;nbsp;&amp;nbsp;&amp;nbsp; :Channel&lt;br&gt;+ listJoined&amp;nbsp;&amp;nbsp; :Channel&lt;br&gt;+ leave&amp;nbsp;&amp;nbsp;&amp;nbsp;&amp;nbsp;&amp;nbsp;&amp;nbsp;&amp;nbsp; :Channel&lt;br&gt;+ addAdmin&amp;nbsp;&amp;nbsp;&amp;nbsp;&amp;nbsp; :Channel&lt;br&gt;+ removeAdmin&amp;nbsp; :Channel&lt;br&gt;+ banUser&amp;nbsp;&amp;nbsp;&amp;nbsp;&amp;nbsp;&amp;nbsp; :ChannelBannedUser&lt;br&gt;+ muteUser&amp;nbsp;&amp;nbsp;&amp;nbsp;&amp;nbsp; :ChannelMutedUser&lt;br&gt;+ inviteUser&amp;nbsp;&amp;nbsp; :ChannelInvitedUser&lt;br&gt;+ sendMessage&amp;nbsp; :ChannelMessage&lt;br&gt;+ messages&amp;nbsp;&amp;nbsp;&amp;nbsp;&amp;nbsp; :ChannelMessage[]&lt;/font&gt;" style="text;strokeColor=none;fillColor=none;align=left;verticalAlign=top;spacingLeft=4;spacingRight=4;overflow=hidden;rotatable=0;points=[[0,0.5],[1,0.5]];portConstraint=eastwest;whiteSpace=wrap;html=1;" vertex="1" parent="VB8kegDQqjzzXHRwAGh4-17">
          <mxGeometry y="26" width="260" height="230" as="geometry" />
        </mxCell>
        <mxCell id="VB8kegDQqjzzXHRwAGh4-21" value="" style="endArrow=none;html=1;edgeStyle=orthogonalEdgeStyle;rounded=0;entryX=0.5;entryY=0;entryDx=0;entryDy=0;exitX=0.25;exitY=1;exitDx=0;exitDy=0;" edge="1" parent="1" source="VB8kegDQqjzzXHRwAGh4-5" target="VB8kegDQqjzzXHRwAGh4-9">
          <mxGeometry relative="1" as="geometry">
            <mxPoint x="360" y="340" as="sourcePoint" />
            <mxPoint x="490" y="420" as="targetPoint" />
          </mxGeometry>
        </mxCell>
        <mxCell id="VB8kegDQqjzzXHRwAGh4-22" value="parent" style="edgeLabel;resizable=0;html=1;align=left;verticalAlign=bottom;" connectable="0" vertex="1" parent="VB8kegDQqjzzXHRwAGh4-21">
          <mxGeometry x="-1" relative="1" as="geometry">
            <mxPoint x="9" y="24" as="offset" />
          </mxGeometry>
        </mxCell>
        <mxCell id="VB8kegDQqjzzXHRwAGh4-23" value="child" style="edgeLabel;resizable=0;html=1;align=right;verticalAlign=bottom;" connectable="0" vertex="1" parent="VB8kegDQqjzzXHRwAGh4-21">
          <mxGeometry x="1" relative="1" as="geometry">
            <mxPoint x="-5" y="-10" as="offset" />
          </mxGeometry>
        </mxCell>
        <mxCell id="VB8kegDQqjzzXHRwAGh4-24" value="" style="endArrow=none;html=1;edgeStyle=orthogonalEdgeStyle;rounded=0;entryX=0.5;entryY=0;entryDx=0;entryDy=0;exitX=0.75;exitY=1;exitDx=0;exitDy=0;" edge="1" parent="1" source="VB8kegDQqjzzXHRwAGh4-5" target="VB8kegDQqjzzXHRwAGh4-17">
          <mxGeometry relative="1" as="geometry">
            <mxPoint x="330" y="420" as="sourcePoint" />
            <mxPoint x="490" y="420" as="targetPoint" />
          </mxGeometry>
        </mxCell>
        <mxCell id="VB8kegDQqjzzXHRwAGh4-25" value="parent" style="edgeLabel;resizable=0;html=1;align=left;verticalAlign=bottom;" connectable="0" vertex="1" parent="VB8kegDQqjzzXHRwAGh4-24">
          <mxGeometry x="-1" relative="1" as="geometry">
            <mxPoint x="4" y="24" as="offset" />
          </mxGeometry>
        </mxCell>
        <mxCell id="VB8kegDQqjzzXHRwAGh4-26" value="child" style="edgeLabel;resizable=0;html=1;align=right;verticalAlign=bottom;" connectable="0" vertex="1" parent="VB8kegDQqjzzXHRwAGh4-24">
          <mxGeometry x="1" relative="1" as="geometry">
            <mxPoint x="-10" y="-10" as="offset" />
          </mxGeometry>
        </mxCell>
        <mxCell id="VB8kegDQqjzzXHRwAGh4-27" value="" style="endArrow=none;html=1;edgeStyle=orthogonalEdgeStyle;rounded=0;entryX=0.5;entryY=0;entryDx=0;entryDy=0;exitX=0.5;exitY=1;exitDx=0;exitDy=0;" edge="1" parent="1" source="VB8kegDQqjzzXHRwAGh4-5" target="VB8kegDQqjzzXHRwAGh4-13">
          <mxGeometry relative="1" as="geometry">
            <mxPoint x="390" y="380" as="sourcePoint" />
            <mxPoint x="490" y="420" as="targetPoint" />
          </mxGeometry>
        </mxCell>
        <mxCell id="VB8kegDQqjzzXHRwAGh4-28" value="parent" style="edgeLabel;resizable=0;html=1;align=left;verticalAlign=bottom;" connectable="0" vertex="1" parent="VB8kegDQqjzzXHRwAGh4-27">
          <mxGeometry x="-1" relative="1" as="geometry">
            <mxPoint x="6" y="24" as="offset" />
          </mxGeometry>
        </mxCell>
        <mxCell id="VB8kegDQqjzzXHRwAGh4-29" value="child" style="edgeLabel;resizable=0;html=1;align=right;verticalAlign=bottom;" connectable="0" vertex="1" parent="VB8kegDQqjzzXHRwAGh4-27">
          <mxGeometry x="1" relative="1" as="geometry">
            <mxPoint x="-14" y="-10" as="offset" />
          </mxGeometry>
        </mxCell>
        <mxCell id="VB8kegDQqjzzXHRwAGh4-30" value="" style="endArrow=block;endFill=1;html=1;edgeStyle=orthogonalEdgeStyle;align=left;verticalAlign=top;rounded=0;exitX=0.5;exitY=1;exitDx=0;exitDy=0;entryX=0.5;entryY=0;entryDx=0;entryDy=0;" edge="1" parent="1" source="VB8kegDQqjzzXHRwAGh4-1" target="VB8kegDQqjzzXHRwAGh4-5">
          <mxGeometry x="-1" relative="1" as="geometry">
            <mxPoint x="330" y="460" as="sourcePoint" />
            <mxPoint x="490" y="460" as="targetPoint" />
          </mxGeometry>
        </mxCell>
        <mxCell id="VB8kegDQqjzzXHRwAGh4-31" value="1" style="edgeLabel;resizable=0;html=1;align=left;verticalAlign=bottom;" connectable="0" vertex="1" parent="VB8kegDQqjzzXHRwAGh4-30">
          <mxGeometry x="-1" relative="1" as="geometry">
            <mxPoint x="-14" y="20" as="offset" />
          </mxGeometry>
        </mxCell>
      </root>
    </mxGraphModel>
  </diagram>
</mxfile>
